<svg width="597" height="426" viewBox="0 0 597 426" fill="none" xmlns="http://www.w3.org/2000/svg">
<g clip-path="url(#clip0_1_97)">
<path d="M46.6002 58.9143C60.4394 58.9143 71.6583 47.6963 71.6583 33.8582C71.6583 20.0202 60.4394 8.80217 46.6002 8.80217C32.761 8.80217 21.5421 20.0202 21.5421 33.8582C21.5421 47.6963 32.761 58.9143 46.6002 58.9143Z" fill="#FF6584"/>
<path d="M201.525 408.978C221.458 417.235 242.622 422.133 264.156 423.472C274.245 424.101 284.525 424.132 294.562 422.799C303.357 421.63 312.29 419.234 319.621 414.049C326.949 408.777 332.107 401.018 334.134 392.222C336.376 382.95 335.432 373.236 332.23 364.306C328.926 355.062 323.701 346.621 316.9 339.54C310.804 333.3 302.264 327.625 293.132 328.693C284.355 329.72 277.971 336.815 275.633 345.024C272.83 354.866 276.055 365.276 280.428 374.137C287.846 389.166 299.75 401.781 313.849 410.751C328.032 419.829 344.337 425.054 361.155 425.909C378.007 426.667 396.132 422.76 409.41 411.873C416.404 406.19 421.397 398.421 423.662 389.7C426.02 380.496 425.403 370.776 423.363 361.575C418.933 341.601 407.234 324.432 400.459 305.313C398.779 300.648 397.486 295.852 396.593 290.975C396.37 289.724 394.463 290.254 394.685 291.501C398.188 311.169 409.276 328.103 416.553 346.419C423.183 363.104 427.129 383.587 417.308 399.877C408.474 414.531 390.929 421.674 374.567 423.497C358.568 425.28 342.189 422.414 327.522 415.86C312.76 409.264 299.531 398.988 289.933 385.933C284.716 378.837 280.223 370.8 277.919 362.262C275.56 353.521 276.113 343.621 282.352 336.561C285.106 333.348 288.94 331.253 293.132 330.671C297.487 330.126 301.849 331.346 305.676 333.38C313.895 337.748 320.01 345.339 324.729 353.19C329.604 361.301 333.039 370.494 333.38 380.025C333.697 388.885 331.372 397.97 326.045 405.142C315.047 419.95 294.377 421.748 277.414 421.862C256.622 421.99 235.945 418.765 216.181 412.309C211.404 410.748 206.694 409.002 202.051 407.071C200.876 406.583 200.364 408.496 201.525 408.978H201.525Z" fill="#E6E6E6"/>
<path d="M150.1 344.802L144.787 336.647C144.168 335.694 143.952 334.535 144.187 333.423C144.422 332.311 145.088 331.338 146.039 330.717L178.399 305.565C179.352 304.946 180.511 304.73 181.623 304.964C182.735 305.199 183.709 305.865 184.33 306.817L189.642 314.971C190.262 315.924 190.478 317.083 190.243 318.195C190.008 319.307 189.342 320.28 188.391 320.901L156.031 346.053C155.078 346.672 153.918 346.888 152.807 346.654C151.695 346.419 150.721 345.753 150.1 344.802Z" fill="#2F2E41"/>
<path d="M146.074 330.753L154.609 326.076C155.606 325.531 156.779 325.403 157.869 325.722C158.96 326.04 159.88 326.778 160.428 327.774L183.089 368.601C183.634 369.598 183.761 370.77 183.443 371.861C183.124 372.952 182.386 373.872 181.39 374.419L172.855 379.097C171.858 379.642 170.686 379.769 169.595 379.451C168.504 379.132 167.584 378.394 167.037 377.399L144.376 336.572C143.831 335.575 143.703 334.402 144.022 333.311C144.34 332.221 145.078 331.301 146.074 330.753Z" fill="#2F2E41"/>
<path d="M86.751 255.624C85.6638 255.622 84.6179 255.208 83.825 254.464C83.0321 253.72 82.5514 252.703 82.4803 251.618L81.8443 241.907C81.77 240.773 82.1493 239.655 82.8989 238.801C83.6484 237.946 84.7068 237.424 85.8412 237.35L161.93 232.367C163.13 232.289 164.333 232.447 165.471 232.834C166.609 233.22 167.66 233.827 168.564 234.619C169.467 235.412 170.206 236.375 170.738 237.453C171.269 238.531 171.583 239.703 171.662 240.902C171.74 242.101 171.582 243.304 171.195 244.442C170.809 245.58 170.202 246.631 169.41 247.535C168.617 248.438 167.654 249.177 166.576 249.708C165.498 250.24 164.326 250.554 163.127 250.632L87.0376 255.615C86.9418 255.621 86.8462 255.624 86.751 255.624Z" fill="#32A95C"/>
<path d="M101.755 256.876C100.646 256.874 99.5815 256.444 98.7834 255.675C97.9854 254.905 97.5159 253.857 97.4732 252.75L96.931 238.245C96.9099 237.683 96.9999 237.122 97.1958 236.594C97.3916 236.066 97.6895 235.582 98.0724 235.17C98.4553 234.757 98.9157 234.424 99.4273 234.19C99.939 233.955 100.492 233.823 101.054 233.802L163.625 231.464C164.761 231.422 165.867 231.832 166.7 232.605C167.533 233.379 168.025 234.451 168.068 235.587L168.61 250.092C168.631 250.654 168.541 251.215 168.345 251.743C168.149 252.271 167.852 252.755 167.469 253.167C167.086 253.58 166.625 253.913 166.114 254.147C165.602 254.382 165.049 254.514 164.487 254.535L101.917 256.873C101.862 256.875 101.808 256.876 101.755 256.876Z" fill="#CCCCCC"/>
<path d="M202.224 410.232V378.754C202.224 351.276 190.235 324.924 168.843 307.676C152.853 294.784 129.693 285.144 96.5161 287.299L109.155 236.747L6.10352e-05 311.426L106.857 386.105L95.9416 338.425C95.9416 338.425 162.584 325.787 202.224 410.232Z" fill="#3F3D56"/>
<path d="M125.886 360.475L118.014 354.752C117.096 354.083 116.48 353.077 116.303 351.954C116.126 350.832 116.401 349.685 117.068 348.765L164.772 283.161C165.441 282.243 166.447 281.628 167.57 281.45C168.692 281.273 169.839 281.548 170.759 282.215L178.631 287.939C179.549 288.608 180.165 289.614 180.342 290.736C180.52 291.859 180.244 293.006 179.577 293.925L131.873 359.529C131.204 360.447 130.198 361.063 129.075 361.24C127.953 361.417 126.806 361.142 125.886 360.475Z" fill="#2F2E41"/>
<path d="M117.114 348.787L123.418 341.373C124.155 340.508 125.206 339.971 126.338 339.879C127.471 339.788 128.594 340.149 129.46 340.884L165.195 370.943C166.06 371.68 166.597 372.73 166.689 373.862C166.78 374.995 166.419 376.118 165.684 376.984L159.379 384.398C158.642 385.263 157.592 385.8 156.459 385.892C155.326 385.984 154.204 385.622 153.337 384.887L117.603 354.829C116.738 354.092 116.2 353.042 116.109 351.909C116.017 350.776 116.379 349.654 117.114 348.787Z" fill="#2F2E41"/>
<path d="M160.295 216.251C178.868 216.251 193.925 201.195 193.925 182.623C193.925 164.051 178.868 148.995 160.295 148.995C141.721 148.995 126.664 164.051 126.664 182.623C126.664 201.195 141.721 216.251 160.295 216.251Z" fill="#32A95C"/>
<path d="M145.501 197.435C144.362 197.458 143.232 197.238 142.186 196.789C141.479 196.454 140.855 195.968 140.356 195.366C139.857 194.764 139.496 194.06 139.297 193.304C139.146 192.769 139.121 192.206 139.223 191.659C139.326 191.112 139.554 190.597 139.889 190.153C140.767 189.026 142.283 188.49 144.068 188.627L139.651 176.264L140.893 175.82L146.085 190.354L144.915 190.088C143.558 189.782 141.797 189.849 140.929 190.963C140.719 191.251 140.577 191.583 140.517 191.934C140.456 192.285 140.476 192.646 140.578 192.987C140.728 193.55 140.998 194.073 141.369 194.521C141.741 194.97 142.204 195.333 142.728 195.587C144.564 196.415 146.712 196.12 149.127 195.683L149.362 196.98C148.091 197.247 146.799 197.399 145.501 197.435Z" fill="#2F2E41"/>
<path d="M133.558 178.691L126.607 180.151L126.878 181.441L133.829 179.981L133.558 178.691Z" fill="#2F2E41"/>
<path d="M155.499 174.081L148.548 175.541L148.819 176.831L155.771 175.371L155.499 174.081Z" fill="#2F2E41"/>
<path d="M188.376 326.948H131.666C130.18 326.947 128.755 326.356 127.704 325.305C126.653 324.254 126.062 322.83 126.061 321.344L137.933 230.308C137.943 228.829 138.537 227.414 139.587 226.372C140.637 225.329 142.056 224.745 143.535 224.746H163.661C171.7 224.755 179.407 227.952 185.091 233.636C190.775 239.32 193.972 247.026 193.981 255.064V321.344C193.98 322.83 193.389 324.254 192.338 325.305C191.287 326.356 189.862 326.947 188.376 326.948Z" fill="#CCCCCC"/>
<path d="M99.8173 288.939C98.9897 288.939 98.1797 288.7 97.4847 288.251C96.7897 287.802 96.2393 287.162 95.8998 286.407L91.9163 277.528C91.6859 277.014 91.5589 276.46 91.5425 275.898C91.5262 275.335 91.6209 274.775 91.8211 274.249C92.0214 273.723 92.3233 273.241 92.7096 272.832C93.096 272.423 93.5592 272.093 94.0728 271.863L163.645 240.655C164.742 240.163 165.924 239.892 167.126 239.857C168.327 239.823 169.524 240.025 170.647 240.452C171.77 240.88 172.798 241.524 173.673 242.349C174.547 243.174 175.25 244.163 175.742 245.259C176.234 246.356 176.505 247.539 176.54 248.74C176.575 249.941 176.372 251.138 175.945 252.261C175.517 253.384 174.873 254.412 174.048 255.286C173.223 256.16 172.234 256.863 171.137 257.355L101.565 288.563C101.016 288.811 100.42 288.939 99.8173 288.939Z" fill="#32A95C"/>
<path d="M120.11 284.354C119.283 284.355 118.473 284.116 117.778 283.667C117.083 283.218 116.532 282.577 116.193 281.823L109.389 266.656C108.925 265.619 108.891 264.44 109.295 263.378C109.7 262.316 110.509 261.458 111.545 260.991L168.674 235.365C169.187 235.135 169.741 235.008 170.304 234.992C170.867 234.975 171.427 235.07 171.953 235.27C172.479 235.47 172.961 235.772 173.37 236.159C173.779 236.545 174.109 237.008 174.339 237.522L181.143 252.688C181.374 253.202 181.501 253.756 181.517 254.318C181.533 254.881 181.439 255.441 181.238 255.967C181.038 256.493 180.736 256.974 180.35 257.384C179.964 257.793 179.5 258.122 178.987 258.353L121.858 283.979C121.308 284.226 120.713 284.354 120.11 284.354Z" fill="#CCCCCC"/>
<path d="M152.833 161.539C147.357 159.522 142.856 164.836 137.894 166.052C133.147 167.216 128.034 164.478 125.498 160.488C122.54 155.832 123.273 149.787 125.964 145.191C128.911 140.157 134.159 137.069 139.722 135.719C146.097 134.173 152.74 134.934 159.032 136.504C165.067 137.917 170.918 140.024 176.469 142.782C181.487 145.379 186.243 148.931 189.176 153.852C191.842 158.324 193.16 163.89 191.841 169.014C191.115 171.659 189.719 174.072 187.789 176.021C185.803 178.123 183.527 179.946 181.674 182.176C178.874 185.548 176.992 191.074 179.753 195.063C180.352 195.936 181.156 196.649 182.095 197.138C183.223 197.725 184.224 196.019 183.093 195.43C181.107 194.396 180.386 192.297 180.44 190.156C180.546 187.728 181.475 185.407 183.073 183.575C185.013 181.243 187.412 179.356 189.46 177.128C191.442 175.051 192.893 172.526 193.688 169.768C195.144 164.433 194.006 158.623 191.429 153.817C188.641 148.616 183.967 144.689 178.881 141.835C173.345 138.729 167.193 136.647 161.085 134.994C154.531 133.221 147.649 132.222 140.904 133.449C135.058 134.513 129.344 137.336 125.668 142.111C122.236 146.568 120.596 152.643 122.256 158.128C123.044 160.611 124.479 162.839 126.414 164.584C128.349 166.328 130.714 167.526 133.266 168.053C135.86 168.53 138.539 168.18 140.924 167.054C143.494 165.902 145.828 164.112 148.561 163.347C149.787 162.972 151.102 163.007 152.307 163.447C153.503 163.887 154.019 161.976 152.833 161.539Z" fill="#2F2E41"/>
<path d="M394.776 295.523V264.044C394.776 236.566 406.765 210.214 428.157 192.967C444.147 180.075 467.306 170.435 500.484 172.589L487.845 122.037L597 196.717L490.143 271.396L501.058 223.716C501.058 223.716 434.416 211.078 394.776 295.523Z" fill="#3F3D56"/>
<path d="M454.109 138.03C452.7 136.893 451.66 135.364 451.12 133.637C450.581 131.909 450.566 130.06 451.077 128.323C451.588 126.587 452.603 125.041 453.993 123.881C455.383 122.722 457.085 122 458.885 121.808L534.706 113.713C535.836 113.593 536.968 113.927 537.852 114.641C538.736 115.354 539.301 116.39 539.423 117.519L539.095 117.554L539.423 117.519L540.457 127.196C540.516 127.756 540.465 128.322 540.306 128.862C540.147 129.402 539.884 129.905 539.53 130.343C539.177 130.781 538.74 131.145 538.246 131.415C537.752 131.684 537.209 131.853 536.65 131.913L460.829 140.008C460.5 140.043 460.17 140.061 459.839 140.061C457.753 140.062 455.729 139.345 454.109 138.03Z" fill="#32A95C"/>
<path d="M476.444 204.882V195.15C476.445 194.014 476.897 192.925 477.7 192.121C478.504 191.318 479.593 190.866 480.73 190.864H561.848C562.985 190.866 564.074 191.318 564.878 192.121C565.681 192.925 566.133 194.014 566.135 195.15V204.882C566.133 206.019 565.681 207.108 564.878 207.911C564.074 208.715 562.985 209.167 561.848 209.168H480.73C479.593 209.167 478.504 208.715 477.7 207.911C476.897 207.108 476.445 206.019 476.444 204.882Z" fill="#32A95C"/>
<path d="M437.659 205.356C437.155 205.104 436.707 204.755 436.339 204.328C435.971 203.902 435.692 203.407 435.517 202.872L432.465 193.63C432.11 192.551 432.198 191.375 432.709 190.36C433.22 189.345 434.113 188.574 435.191 188.217L512.22 162.786C513.299 162.429 514.476 162.516 515.491 163.027C516.507 163.539 517.277 164.432 517.634 165.512L517.32 165.615L517.634 165.512L520.685 174.753C521.04 175.832 520.953 177.008 520.441 178.023C519.93 179.038 519.037 179.809 517.959 180.166L440.931 205.597C440.396 205.775 439.832 205.845 439.271 205.804C438.709 205.763 438.161 205.61 437.659 205.356V205.356Z" fill="#32A95C"/>
<path d="M538.644 208.211L504.074 177.043C503.231 176.282 502.724 175.216 502.666 174.082C502.607 172.947 503.001 171.835 503.761 170.99L510.278 163.762C511.04 162.918 512.105 162.411 513.24 162.353C514.376 162.294 515.488 162.688 516.332 163.449L550.902 194.617C551.745 195.379 552.252 196.444 552.31 197.579C552.369 198.714 551.975 199.826 551.215 200.67L544.698 207.898C544.322 208.317 543.867 208.658 543.358 208.9C542.85 209.142 542.298 209.281 541.736 209.308C541.66 209.312 541.585 209.314 541.509 209.314C540.45 209.316 539.429 208.923 538.644 208.211Z" fill="#32A95C"/>
<path d="M450.755 96.2408C469.329 96.2408 484.386 81.1851 484.386 62.6129C484.386 44.0407 469.329 28.985 450.755 28.985C432.182 28.985 417.125 44.0407 417.125 62.6129C417.125 81.1851 432.182 96.2408 450.755 96.2408Z" fill="#32A95C"/>
<path d="M411.394 196.071C409.041 192.051 407.801 187.478 407.801 182.82C407.801 178.162 409.041 173.588 411.394 169.569L447.043 107.828C447.419 107.176 447.96 106.635 448.612 106.259C449.264 105.883 450.003 105.685 450.755 105.685C451.508 105.685 452.247 105.883 452.898 106.259C453.55 106.635 454.091 107.176 454.467 107.828L509.358 202.894C509.734 203.545 509.932 204.284 509.932 205.037C509.932 205.789 509.734 206.528 509.358 207.18C508.982 207.831 508.441 208.372 507.789 208.748C507.138 209.125 506.398 209.323 505.646 209.323H434.348C429.69 209.35 425.109 208.137 421.075 205.809C417.041 203.48 413.699 200.119 411.394 196.071Z" fill="#CCCCCC"/>
<path d="M478.476 75.4106C480.656 75.35 483.369 75.2744 485.459 73.7476C486.081 73.2744 486.593 72.6708 486.957 71.9792C487.322 71.2875 487.531 70.5246 487.569 69.7437C487.607 69.1887 487.516 68.6325 487.303 68.1185C487.09 67.6045 486.762 67.1466 486.343 66.7808C485.251 65.858 483.657 65.642 481.939 66.1468L483.719 53.1404L482.412 52.9613L480.319 68.2521L481.411 67.7515C482.676 67.1713 484.412 66.8764 485.491 67.7879C485.756 68.0263 485.963 68.3225 486.094 68.6537C486.226 68.9848 486.28 69.3418 486.251 69.6971C486.219 70.2783 486.062 70.8457 485.791 71.3609C485.521 71.8761 485.142 72.3269 484.681 72.6826C483.054 73.8706 480.892 74.0239 478.439 74.0924L478.476 75.4106Z" fill="#2F2E41"/>
<path d="M474.863 54.2621H467.76V55.5808H474.863V54.2621Z" fill="#2F2E41"/>
<path d="M430.815 22.9532C429.881 19.1365 428.15 15.5607 425.735 12.4608C423.321 9.36084 420.277 6.80695 416.805 4.96694C413.244 3.13708 409.321 2.12325 405.319 1.99909C401.317 1.87494 397.338 2.64358 393.67 4.24918C389.915 5.85794 386.579 8.30868 383.921 11.412C381.263 14.5153 379.355 18.1881 378.343 22.1465C377.301 26.1288 377.157 30.2926 377.921 34.3374C378.859 38.6214 380.677 42.6636 383.261 46.2071C385.866 49.9794 388.929 53.4028 391.741 57.0169C394.563 60.6386 397.134 64.4499 399.434 68.424C406.363 80.3976 410.757 93.6678 412.342 107.411C412.878 111.561 412.98 115.757 412.645 119.928C411.887 128.029 408.749 135.964 401.545 140.372C397.715 142.716 393.294 143.926 388.922 144.773C384.014 145.813 378.991 146.205 373.981 145.94C365.512 145.338 357.037 141.804 352.118 134.608C351.029 133.005 350.177 131.254 349.587 129.409C349.196 128.194 351.105 127.674 351.495 128.883C354.1 136.958 362.006 141.936 370.008 143.454C374.991 144.289 380.078 144.284 385.06 143.439C389.585 142.764 394.248 141.829 398.395 139.832C402.164 138.075 405.289 135.185 407.337 131.566C409.188 128.073 410.308 124.239 410.63 120.299C411.512 111.672 410.076 102.74 407.927 94.3959C405.626 85.4651 402.098 76.8966 397.442 68.9354C395.117 64.9576 392.514 61.1488 389.652 57.5376C386.818 53.9655 383.795 50.5305 381.239 46.7465C378.716 43.177 376.939 39.1353 376.013 34.8632C375.226 30.7641 375.299 26.5462 376.228 22.4769C377.124 18.4609 378.878 14.6861 381.37 11.4112C383.861 8.1364 387.032 5.43896 390.663 3.50378C397.79 -0.255439 406.474 -1.15551 414.097 1.61452C421.495 4.3442 427.517 9.88297 430.853 17.0272C431.656 18.7601 432.282 20.5693 432.723 22.4274C433.014 23.6655 431.107 24.1939 430.815 22.9532V22.9532Z" fill="#2F2E41"/>
<path d="M424.387 24.5613C423.147 21.0271 420.648 18.0738 417.368 16.2661C414.087 14.4584 410.255 13.923 406.605 14.7623C405.367 15.0519 404.838 13.1451 406.079 12.8548C410.237 11.8348 414.627 12.4191 418.374 14.4913C422.121 16.5634 424.949 19.9712 426.295 24.0354C426.71 25.2418 424.8 25.76 424.387 24.5613Z" fill="#2F2E41"/>
<path d="M424.086 31.7102C423.707 30.8264 423.694 29.8286 424.051 28.9355C424.407 28.0425 425.103 27.3272 425.986 26.9465L435.073 23.0408C435.957 22.661 436.956 22.6478 437.849 23.0041C438.742 23.3605 439.458 24.0571 439.838 24.9408C440.217 25.8244 440.231 26.8228 439.874 27.7162C439.518 28.6096 438.821 29.3249 437.938 29.7047L428.85 33.6104C427.966 33.9901 426.968 34.0032 426.074 33.6469C425.181 33.2905 424.465 32.5939 424.086 31.7102Z" fill="#2F2E41"/>
<path d="M446.453 217.045L436.752 216.257C435.62 216.164 434.571 215.625 433.835 214.759C433.099 213.893 432.737 212.771 432.827 211.638L438.998 135.642C439.094 134.444 439.426 133.277 439.974 132.207C440.523 131.137 441.276 130.185 442.192 129.407C443.108 128.628 444.169 128.037 445.313 127.668C446.457 127.3 447.663 127.16 448.861 127.257C450.06 127.355 451.227 127.687 452.297 128.235C453.367 128.784 454.318 129.538 455.096 130.454C455.875 131.371 456.465 132.431 456.833 133.575C457.202 134.72 457.341 135.926 457.243 137.124L451.072 213.119C450.985 214.191 450.498 215.192 449.708 215.921C448.918 216.651 447.883 217.057 446.807 217.059C446.69 217.059 446.572 217.054 446.453 217.045Z" fill="#32A95C"/>
<path d="M8.55251 65.7295C5.08558 57.6251 9.83791 47.0519 18.2007 44.2638C26.5635 41.4756 36.7107 47.0813 38.8016 55.6445C37.4498 52.347 36.8814 48.7809 37.1411 45.2266C37.4009 41.6722 38.4817 38.2266 40.2986 35.1607C42.1155 32.0948 44.619 29.4921 47.6121 27.5573C50.6052 25.6226 54.0064 24.4085 57.5482 24.0106C61.09 23.6127 64.6758 24.0418 68.0237 25.2642C71.3716 26.4865 74.3902 28.4688 76.8422 31.0551C79.2943 33.6415 81.1128 36.7614 82.1549 40.1694C83.197 43.5775 83.4342 47.1808 82.8478 50.696C87.8889 43.2648 98.7055 40.4582 106.724 44.5008C114.743 48.5435 118.918 58.9082 115.941 67.3798L5.56848 67.1826" fill="#CDF4F3"/>
<path d="M232.097 158.041C228.63 149.937 233.382 139.364 241.745 136.576C250.108 133.788 260.255 139.393 262.346 147.956C260.994 144.659 260.426 141.093 260.686 137.538C260.945 133.984 262.026 130.539 263.843 127.473C265.66 124.407 268.164 121.804 271.157 119.869C274.15 117.934 277.551 116.72 281.093 116.322C284.635 115.925 288.22 116.354 291.568 117.576C294.916 118.798 297.935 120.781 300.387 123.367C302.839 125.953 304.657 129.073 305.699 132.481C306.742 135.889 306.979 139.493 306.392 143.008C311.433 135.577 322.25 132.77 330.269 136.813C338.287 140.855 342.463 151.22 339.485 159.692L229.113 159.495" fill="#CDF4F3"/>
</g>
<defs>
<clipPath id="clip0_1_97">
<rect width="597" height="426" fill="white"/>
</clipPath>
</defs>
</svg>
