<svg width="380" height="403" viewBox="0 0 380 403" fill="none" xmlns="http://www.w3.org/2000/svg">
<path d="M167.818 333.67C167.818 328.197 170.987 323.261 175.847 321.165L184.77 317.316C188.098 315.88 190.705 313.073 191.97 309.564L193.795 304.499C194.49 302.572 195.628 300.852 197.109 299.488L205.487 291.778C207.694 289.747 209.113 286.949 209.479 283.907C210.112 278.638 207.501 273.522 202.951 271.117L180.896 259.457C178.716 258.305 176.924 256.493 175.753 254.26L171.06 245.31C169.001 241.383 165.4 238.586 161.196 237.649L151.48 235.483C147.421 234.578 143.916 231.937 141.824 228.207C139.171 223.475 134.296 220.573 129.03 220.589L103.098 220.672C98.6325 220.686 94.4006 218.596 91.5886 214.988L82.0698 202.775C81.2103 201.672 80.2962 200.616 79.3305 199.612L65.4469 185.171C63.121 182.751 61.4948 179.699 60.7551 176.364C58.8775 167.899 62.9924 159.23 70.595 155.634L75.6836 153.228C79.4438 151.451 83.6866 151.109 87.6656 152.264L109.035 158.468C111.409 159.157 113.411 160.822 114.579 163.079L120.626 174.761C122.061 177.535 124.733 179.379 127.747 179.677C133.249 180.222 137.935 175.562 137.659 169.82L136.994 155.985C136.83 152.581 138.445 149.351 141.217 147.535L146.141 144.31C152.793 139.953 158.037 133.623 161.197 126.135L165.149 116.77C167.951 110.131 169.007 102.837 168.207 95.6338L167.841 92.335C167.447 88.78 166.606 85.2938 165.339 81.9663L164.927 80.8816C161.983 73.1449 156.966 66.7779 150.741 62.2977C76.82 75.2259 19.1087 132.627 8.89026 204.511L26.072 207.4C28.1465 207.749 30.245 207.924 32.3471 207.924H37.2729C45.7082 207.924 53.9198 210.745 60.6955 215.971L68.1579 221.727C70.4272 223.477 71.8906 226.134 72.1943 229.055L73.2058 238.791C73.7849 244.367 70.0631 249.438 64.7392 250.324C59.7662 251.151 56.1345 255.656 56.2159 260.893L56.7471 295.167C56.7819 297.417 57.5093 299.597 58.8216 301.387L70.6633 317.529C75.3646 323.937 81.7814 328.758 89.1072 331.386C94.817 333.434 98.3251 339.411 97.4684 345.631L93.8142 372.152C108.305 380.31 124.128 386.525 140.897 390.43L166.331 339.955C167.307 338.016 167.818 335.859 167.818 333.67Z" fill="#7AC943"/>
<path d="M276.302 114.789L263.71 115.153C258.841 115.294 254.675 118.83 253.564 123.764L250.22 138.613C249.136 143.427 251.225 148.409 255.355 150.856L270.217 159.661C272.768 161.172 275.916 161.072 278.373 159.403L288.925 152.234C291.22 150.675 292.564 147.982 292.469 145.132C292.29 139.784 297.033 135.713 302.047 136.911L318.343 140.804C318.555 140.854 318.769 140.896 318.983 140.928L333.872 143.151C321.861 123.354 305.748 106.126 286.645 92.5384L286.731 103.542C286.778 109.621 282.142 114.621 276.302 114.789Z" fill="#7AC943"/>
<path d="M352.575 187.749L328.89 181.794C328.622 181.727 328.351 181.67 328.078 181.624L315.787 179.562C304.785 177.716 293.614 181.601 285.89 189.956L284.04 191.958C279.532 196.835 276.465 202.956 275.202 209.593L270.516 234.232C269.176 241.275 269.93 248.575 272.677 255.161C277.512 266.749 287.923 274.772 299.988 276.205L302.263 276.476C307.435 277.09 312.673 276.46 317.573 274.633L325.323 271.745C329.616 270.146 334.411 271.543 337.279 275.23L338.299 276.54C339.777 278.44 340.615 280.793 340.683 283.236L341.106 298.323C351.616 276.772 357.498 252.731 357.498 227.37C357.498 213.72 355.785 200.454 352.575 187.749Z" fill="#7AC943"/>
<path d="M316.991 295.332C313.861 292.721 309.286 293.245 306.777 296.504C303.456 300.816 299.865 305.019 296.104 308.998C293.289 311.975 293.329 316.761 296.189 319.688C297.604 321.136 299.445 321.858 301.284 321.858C303.164 321.858 305.043 321.103 306.465 319.599C310.57 315.256 314.491 310.667 318.118 305.957C320.627 302.699 320.123 297.942 316.991 295.332Z" fill="black"/>
<path d="M278.266 325.297C250.789 346.964 217.49 359.522 181.972 361.613C177.965 361.849 174.901 365.419 175.128 369.587C175.346 373.61 178.55 376.72 182.376 376.72C182.514 376.72 182.652 376.716 182.793 376.707C221.206 374.446 257.256 360.834 287.046 337.345C290.244 334.823 290.872 330.082 288.448 326.754C286.023 323.428 281.464 322.774 278.266 325.297Z" fill="black"/>
<path d="M359.602 185.828C359.602 185.827 359.602 185.827 359.602 185.826C355.458 169.422 348.869 153.708 340.016 139.117C327.431 118.373 310.853 100.602 290.746 86.2991C259.2 63.8601 221.728 52 182.382 52C171.377 52 160.326 52.957 149.537 54.8437C118.957 60.1917 90.091 73.1419 66.0623 92.2942C30.7427 120.446 7.88603 159.906 1.70175 203.405C0.572578 211.351 0 219.413 0 227.37C0 258.592 8.64099 289.247 24.9885 316.023C40.7969 341.916 63.3978 363.622 90.3489 378.796C90.3511 378.798 90.3533 378.799 90.3555 378.8C105.647 387.409 122.118 393.803 139.31 397.806C153.368 401.08 167.86 402.739 182.382 402.739C217.654 402.739 251.879 393.041 281.356 374.693C310.152 356.77 333.054 331.544 347.586 301.745C358.985 278.368 364.764 253.345 364.764 227.37C364.764 213.361 363.028 199.384 359.602 185.828ZM318.035 132.975L303.671 129.544C299.065 128.443 294.331 129.608 290.686 132.737C287.04 135.866 285.042 140.48 285.207 145.395C285.214 145.598 285.116 145.794 284.951 145.906L274.399 153.075C274.222 153.195 273.996 153.203 273.812 153.093L258.95 144.288C257.628 143.504 256.946 141.879 257.293 140.337L260.637 125.487C260.995 123.896 262.342 122.755 263.911 122.71L276.503 122.345C284.949 122.101 291.979 115.685 293.63 107.373C302.738 115.061 310.893 123.617 318.035 132.975ZM14.5324 227.37C14.5324 222.679 14.7519 217.946 15.1871 213.227L24.9115 214.862C27.3602 215.274 29.862 215.483 32.3463 215.483H37.2721C44.1002 215.483 50.8817 217.814 56.367 222.044L63.8301 227.799C64.4688 228.291 64.8845 229.046 64.9695 229.868L65.9809 239.604C66.1444 241.179 65.0945 242.61 63.5911 242.86C55.1056 244.272 48.8116 252.077 48.9504 261.016L49.4815 295.289C49.5418 299.183 50.7742 302.878 53.0449 305.972L64.8874 322.115C70.4751 329.732 78.0312 335.409 86.7384 338.532C89.15 339.398 90.6374 341.932 90.2756 344.558L88.1509 359.979C42.4892 330.301 14.5324 280.396 14.5324 227.37ZM91.4759 324.24C85.4842 322.091 80.2852 318.184 76.4399 312.943L64.5982 296.801C64.2247 296.292 64.0227 295.685 64.0125 295.045L63.4814 260.772C63.4588 259.303 64.4935 258.02 65.8879 257.788C75.0383 256.265 81.426 247.564 80.4298 237.979L79.4184 228.242C78.8988 223.239 76.3716 218.651 72.4857 215.654L65.0225 209.899C57.0507 203.751 47.1956 200.364 37.2728 200.364H32.347C30.6373 200.364 28.9167 200.221 27.2309 199.937L17.3052 198.268C24.3506 161.588 44.6073 128.44 74.901 104.294C96.2535 87.275 121.774 75.5638 148.888 70.3156C153 73.8751 156.184 78.4408 158.171 83.6641L158.583 84.748C159.615 87.4602 160.302 90.3047 160.623 93.2021L160.989 96.5001C161.639 102.366 160.777 108.325 158.495 113.732L154.544 123.096C151.957 129.224 147.713 134.348 142.269 137.914L137.346 141.138C132.359 144.405 129.443 150.239 129.736 156.363L130.402 170.198C130.435 170.904 130.12 171.373 129.849 171.643C129.578 171.912 129.114 172.217 128.436 172.152C127.837 172.093 127.309 171.728 127.024 171.177L120.978 159.496C118.884 155.451 115.243 152.422 110.989 151.187L89.6187 144.982C84.0026 143.352 77.9855 143.836 72.6775 146.346L67.5882 148.753C56.8822 153.816 51.0307 166.143 53.6749 178.063C54.7212 182.783 57.0159 187.09 60.3082 190.515L74.1925 204.959C74.9751 205.773 75.7257 206.641 76.4247 207.537L85.9434 219.75C90.1469 225.144 96.3785 228.233 103.051 228.232C103.074 228.232 103.096 228.232 103.119 228.232L129.052 228.15C129.06 228.15 129.067 228.15 129.075 228.15C131.729 228.15 134.208 229.63 135.546 232.017C138.66 237.571 143.912 241.529 149.956 242.876L159.673 245.042C161.809 245.518 163.635 246.936 164.681 248.932L169.373 257.882C171.255 261.47 174.101 264.346 177.604 266.198L199.658 277.857C201.472 278.817 202.521 280.871 202.268 282.971C202.122 284.188 201.556 285.305 200.673 286.118L192.296 293.827C189.934 296.001 188.1 298.773 186.992 301.845L185.165 306.911C184.609 308.455 183.451 309.702 181.986 310.334L173.063 314.183C165.463 317.461 160.551 325.111 160.551 333.671C160.551 334.633 160.323 335.593 159.894 336.447L137.088 381.706C124.796 378.425 112.943 373.806 101.736 367.931L104.66 346.705C106.011 336.912 100.465 327.465 91.4759 324.24ZM182.382 387.621C172.132 387.621 161.902 386.729 151.854 384.965L172.765 343.465C174.282 340.455 175.084 337.068 175.084 333.669C175.084 331.244 176.476 329.075 178.63 328.146L187.554 324.297C192.721 322.067 196.811 317.664 198.773 312.217L200.599 307.153C200.876 306.385 201.335 305.693 201.925 305.149L210.302 297.44C213.836 294.188 216.103 289.714 216.689 284.846C217.7 276.442 213.502 268.217 206.243 264.378L184.188 252.719C183.313 252.256 182.602 251.538 182.132 250.641L177.439 241.691C174.364 235.825 168.998 231.659 162.718 230.258L153.002 228.092C150.946 227.634 149.159 226.287 148.099 224.398C144.165 217.382 136.88 213.031 129.075 213.031C129.052 213.031 129.03 213.031 129.007 213.031L103.075 213.113C103.067 213.113 103.06 213.113 103.052 213.113C100.782 213.113 98.6615 212.063 97.2322 210.228L87.7128 198.015C86.6969 196.711 85.6048 195.45 84.4677 194.268L70.5841 179.825C69.2195 178.406 68.2691 176.621 67.8353 174.665C66.7395 169.724 69.165 164.615 73.6018 162.516L78.6903 160.109C80.8912 159.069 83.3843 158.868 85.7124 159.544L107.082 165.748C107.55 165.884 107.951 166.218 108.182 166.663L114.229 178.345C116.821 183.352 121.616 186.663 127.059 187.203C131.782 187.672 136.46 185.982 139.891 182.571C143.323 179.16 145.154 174.374 144.917 169.443L144.251 155.608C144.219 154.934 144.54 154.292 145.089 153.932L150.012 150.707C157.923 145.526 164.092 138.079 167.85 129.173L171.802 119.809C175.117 111.952 176.371 103.293 175.426 94.7668L175.059 91.4688C174.593 87.2591 173.595 83.1259 172.095 79.1846L171.683 78.0999C170.29 74.4398 168.487 71.0065 166.329 67.8468H166.338C171.67 67.3622 177.032 67.1181 182.382 67.1181C217.49 67.1181 250.954 77.3001 279.41 96.6021L279.465 103.605C279.48 105.551 277.97 107.179 276.1 107.233L263.509 107.597C255.349 107.833 248.35 113.772 246.489 122.04L243.145 136.889C241.34 144.905 244.882 153.35 251.759 157.424L266.621 166.23C268.953 167.612 271.527 168.299 274.096 168.299C276.967 168.299 279.833 167.439 282.347 165.733L292.898 158.564C297.295 155.577 299.913 150.33 299.73 144.871C299.727 144.793 299.72 144.582 299.934 144.398C300.151 144.213 300.346 144.263 300.419 144.278L316.715 148.171C317.12 148.268 317.534 148.348 317.95 148.41L329.469 150.131C334.479 158.806 338.622 167.889 341.854 177.277L330.599 174.447C330.15 174.334 329.691 174.237 329.234 174.161L316.943 172.099C303.597 169.86 290.025 174.575 280.651 184.717L278.802 186.718C273.319 192.65 269.61 200.053 268.073 208.125L263.387 232.765C261.753 241.354 262.66 250.139 266.011 258.171C271.861 272.194 284.563 281.982 299.161 283.716L301.438 283.986C307.68 284.728 314.108 283.954 320.022 281.75L327.773 278.862C329.153 278.347 330.705 278.798 331.631 279.988L332.648 281.295C333.124 281.906 333.397 282.674 333.419 283.457L333.787 296.597C305.957 351.954 246.745 387.621 182.382 387.621ZM343.774 271.565L342.927 270.476C339.445 266.002 334.256 263.536 328.927 263.536C326.901 263.536 324.854 263.893 322.873 264.631L315.122 267.518C311.292 268.946 307.127 269.447 303.087 268.966L300.811 268.696C291.357 267.573 283.131 261.234 279.343 252.154C277.172 246.952 276.584 241.262 277.642 235.701L282.329 211.061C283.324 205.833 285.726 201.039 289.278 197.198L291.127 195.197C297.198 188.63 305.986 185.575 314.63 187.026L326.92 189.088C327.007 189.103 327.094 189.12 327.182 189.143L346.578 194.019C349.005 204.951 350.232 216.149 350.232 227.37C350.232 242.509 348.067 257.297 343.774 271.565Z" fill="black"/>
<path d="M167.736 108.995L179.44 231.194L374.943 28.7884L167.736 108.995Z" fill="#027372"/>
<path d="M234.447 184.251L179.44 231.194L195.429 156.567L227.151 160.632L234.447 184.251Z" fill="#02ACAB"/>
<path d="M374.942 28.7884L170.561 138.494L121.495 102.841L374.942 28.7884Z" fill="#81E3E2"/>
<path d="M374.942 28.7884L374.618 29.4919L256.182 199.671L195.429 156.567L374.942 28.7884Z" fill="#81E3E2"/>
<path d="M256.183 199.671L374.619 29.4919L286.39 221.105L256.183 199.671Z" fill="#42C8C6"/>
<path d="M378.042 26.0795C377.029 24.8276 375.399 24.3094 373.875 24.756L120.428 98.8079C118.922 99.248 117.79 100.547 117.519 102.145C117.249 103.743 117.888 105.352 119.163 106.278L166.726 140.842L175.412 231.542C175.459 232.182 175.647 232.792 175.95 233.33C175.981 233.384 176.006 233.426 176.031 233.467C176.569 234.331 177.389 234.978 178.393 235.249C178.521 235.284 178.65 235.311 178.779 235.332C178.863 235.346 178.946 235.357 179.03 235.366C179.796 235.442 180.545 235.286 181.203 234.948C181.426 234.835 181.641 234.699 181.843 234.54C181.906 234.491 181.961 234.446 182.015 234.4L223.962 198.604C225.691 197.129 225.95 194.488 224.541 192.705C223.131 190.921 220.588 190.672 218.86 192.148L185.909 220.266L198.064 163.531L284.092 224.57C284.959 225.182 285.969 225.395 286.927 225.253C287.032 225.238 287.129 225.219 287.225 225.197C288.179 224.978 289.054 224.411 289.661 223.534C289.692 223.488 289.719 223.447 289.746 223.406C289.871 223.21 289.975 223.016 290.062 222.818L378.583 30.5716C379.267 29.0867 379.056 27.3304 378.042 26.0795ZM130.798 104.467L337.955 43.9398L170.903 133.61L130.798 104.467ZM193.236 153.062C192.829 153.337 192.464 153.693 192.163 154.124C192.124 154.18 192.086 154.237 192.05 154.295C191.757 154.761 191.564 155.264 191.466 155.777L180.97 204.77L174.853 140.896L319.135 63.4483L193.236 153.062ZM284.794 214.879L202.573 156.542L364.836 41.0451L284.794 214.879Z" fill="black"/>
</svg>
